# Blender 4.3.0
# www.blender.org
mtllib island.mtl
o Terrain
v -2.500000 0.000000 2.500000
v 2.500000 0.000000 2.500000
v -2.500000 0.000000 -2.500000
v 2.500000 0.000000 -2.500000
v -2.499136 -0.002578 0.000308
v -0.000217 0.003005 2.499658
v 2.500000 0.000000 0.000000
v -0.000885 0.002261 -2.500355
v -0.508739 0.782077 0.136201
v -2.500000 0.000000 1.250000
v 1.250000 0.000000 2.500000
v 2.499351 0.002547 -1.250070
v -1.250000 0.000000 -2.500000
v -2.500000 0.000000 -1.250000
v -1.250000 0.000000 2.500000
v 2.499405 0.001086 1.249702
v 1.249263 0.004416 -2.499402
v -0.300878 0.582219 -1.153266
v -0.233086 0.360967 1.311311
v -1.476814 0.341950 0.063583
v 1.054167 0.304538 0.044074
v 1.159440 0.207444 1.263455
v -1.325809 0.110938 1.272697
v -1.329104 0.120779 -1.228480
v 1.085492 0.321781 -1.210490
v -2.500000 0.000000 1.875000
v 1.875000 0.000000 2.500000
v 2.500000 0.000000 -1.875000
v -1.875000 0.000000 -2.500000
v -2.499855 -0.000432 -0.624948
v -0.625000 0.000000 2.500000
v 2.500000 0.000000 0.625000
v 0.625000 0.000000 -2.500000
v -0.177854 0.399629 -1.909136
v -0.420506 0.646384 0.737527
v -1.924950 0.069044 0.016702
v 0.247557 0.633003 0.046699
v -2.499528 -0.001409 0.625169
v 0.625000 0.000000 2.500000
v 2.500000 0.000000 -0.625000
v -0.625000 0.000000 -2.500000
v -2.500000 0.000000 -1.875000
v -1.875000 0.000000 2.500000
v 2.500000 0.000000 1.875000
v 1.875000 0.000000 -2.500000
v -0.485932 0.948433 -0.516541
v -0.066303 0.216800 1.874748
v -1.043993 0.641864 0.113067
v 1.815334 0.098057 0.013232
v 1.201863 0.336290 0.536533
v 1.246667 0.006504 1.875665
v 0.435119 0.299726 1.297428
v 1.839379 0.064466 1.234409
v -1.429401 0.268429 0.676171
v -1.251713 0.000901 1.876205
v -1.875089 -0.003949 1.251785
v -0.807832 0.278675 1.299946
v -1.253064 0.004935 -1.874277
v -1.431408 0.274423 -0.574546
v -1.876889 0.001428 -1.248858
v -0.815145 0.301636 -1.199076
v 1.208044 0.230981 -1.843812
v 1.056366 0.311346 -0.579189
v 0.432662 0.307077 -1.203402
v 1.836431 0.144225 -1.253103
v 1.836056 0.065077 -0.616518
v 0.305665 0.772275 -0.616493
v 0.585446 0.066313 -1.866787
v -0.977306 0.556603 -0.531894
v -1.907065 0.044094 -0.614179
v -1.875000 0.000000 -1.875000
v -0.660667 0.058489 1.884125
v -1.875000 0.000000 1.875000
v -1.905402 0.039128 0.636414
v 1.874322 0.001238 1.874660
v 0.586656 0.063749 1.883477
v 0.274698 0.542984 0.715610
v 1.835579 0.065393 0.633201
v -0.970677 0.528117 0.718901
v -0.667008 0.071910 -1.867918
v 1.873603 0.006884 -1.874527
vn 0.0055 1.0000 -0.0055
vn -0.2753 0.8801 -0.3869
vn -0.2339 0.9455 0.2267
vn 0.1206 0.9924 0.0241
vn 0.2953 0.9554 0.0035
vn 0.1113 0.9406 0.3208
vn 0.0495 0.9976 0.0493
vn -0.4823 0.8704 0.0993
vn -0.0996 0.9908 0.0917
vn -0.1898 0.9196 0.3439
vn -0.0040 1.0000 -0.0040
vn -0.3092 0.9349 -0.1742
vn -0.4678 0.7431 -0.4786
vn -0.1266 0.9655 -0.2274
vn 0.2948 0.9070 -0.3008
vn 0.1539 0.9860 0.0638
vn 0.2697 0.9601 0.0741
vn 0.2813 0.9595 -0.0149
vn 0.1197 0.9925 -0.0241
vn 0.1958 0.8336 -0.5165
vn 0.2272 0.9454 0.2335
vn 0.4466 0.8864 0.1216
vn 0.2323 0.9225 -0.3083
vn 0.3681 0.9082 -0.1994
vn -0.1307 0.9535 -0.2716
vn -0.3846 0.8573 -0.3422
vn -0.5322 0.8340 -0.1458
vn -0.4607 0.8872 0.0237
vn -0.0374 0.9987 -0.0344
vn -0.0986 0.9949 -0.0194
vn -0.4702 0.8782 -0.0874
vn -0.0000 1.0000 -0.0000
vn -0.0011 1.0000 -0.0011
vn -0.1034 0.9898 -0.0976
vn -0.1992 0.9339 0.2968
vn -0.0476 0.9977 0.0492
vn -0.1261 0.9667 0.2225
vn 0.0032 1.0000 -0.0032
vn -0.0007 1.0000 0.0007
vn -0.0961 0.9951 0.0245
vn -0.0303 0.9990 0.0343
vn -0.3225 0.9275 0.1891
vn 0.1149 0.9742 0.1943
vn 0.0042 1.0000 0.0062
vn 0.0010 1.0000 0.0010
vn 0.1551 0.9499 0.2712
vn 0.1171 0.9712 0.2073
vn 0.0448 0.9975 0.0550
vn 0.1809 0.9710 0.1561
vn 0.1207 0.9160 0.3827
vn 0.2037 0.9464 0.2507
vn 0.3255 0.9443 -0.0484
vn 0.2942 0.9504 0.1014
vn 0.0968 0.9953 -0.0004
vn -0.5362 0.8247 0.1799
vn -0.3937 0.8377 0.3786
vn -0.1680 0.8741 0.4558
vn -0.0548 0.9965 -0.0628
vn -0.2022 0.9381 -0.2811
vn -0.4888 0.8088 -0.3271
vn 0.1676 0.9708 -0.1713
vn 0.2634 0.9545 -0.1400
vn 0.1140 0.9877 -0.1074
vt 4.848868 3.981302
vt 5.968873 3.799880
vt 5.973935 5.141951
vt 4.676910 5.376136
vt -0.500691 4.374201
vt 0.566202 4.781097
vt 0.713578 5.830233
vt -0.539417 5.613121
vt -1.164177 -1.226599
vt -0.158985 -0.623945
vt -0.306999 0.702496
vt -1.750660 -0.438683
vt 4.084654 -0.391021
vt 6.243106 -0.211147
vt 6.445463 0.751186
vt 4.423202 0.628775
vt 1.234803 -0.102464
vt 2.601907 0.101512
vt 2.771324 0.985879
vt 1.770052 1.578256
vt 1.624537 -3.192436
vt 2.800578 -3.086872
vt 2.574121 -1.698047
vt 1.363186 -1.874834
vt 4.067036 -2.836921
vt 5.570754 -2.381714
vt 5.769041 -0.977024
vt 3.852873 -1.383463
vt -3.205728 -1.892934
vt -2.038097 -1.609200
vt -2.594180 -0.870573
vt -3.585480 -1.108036
vt -2.612183 -3.591457
vt -1.410548 -3.402945
vt -1.588483 -2.282429
vt -2.769475 -2.519909
vt -0.381860 -3.464479
vt 0.445166 -3.257908
vt 0.099767 -2.082286
vt -0.796589 -2.234106
vt -3.122343 4.064705
vt -1.804476 4.118027
vt -1.830862 5.572185
vt -3.191588 5.555619
vt -3.496741 0.358164
vt -2.587052 1.035757
vt -2.044128 2.599286
vt -2.991228 1.772618
vt -1.797459 1.032588
vt -0.227856 2.016218
vt 0.267643 3.324891
vt -0.911292 2.931419
vt 2.111008 5.052094
vt 3.547962 4.631771
vt 3.290846 5.876906
vt 1.912617 5.978319
vt 2.069600 2.775017
vt 3.478354 1.832690
vt 3.481010 3.291126
vt 1.981359 3.829803
vt 5.006184 1.351080
vt 6.384057 1.599873
vt 6.582284 2.240461
vt 5.724202 2.011600
vt -4.648352 0.808116
vt -4.303531 2.469921
vt -4.922525 -0.682469
vt -4.400556 3.875405
vt -4.468345 5.459107
vt -1.782755 -4.609382
vt -0.541053 -4.713350
vt 0.464957 -4.592172
vt -3.974074 -4.254655
vt -4.301429 -3.093178
vt -4.274665 -4.997401
vt -3.035809 -4.617131
vt -4.700433 -2.185298
vt 2.648185 -4.668825
vt 4.001366 -4.517100
vt 5.328294 -4.420023
vt 1.370547 -4.646685
s 0
usemtl Material
f 81/1/1 28/2/1 4/3/1 45/4/1
f 80/5/2 34/6/2 8/7/2 41/8/2
f 79/9/3 35/10/3 9/11/3 48/12/3
f 78/13/4 32/14/4 7/15/4 49/16/4
f 77/17/5 50/18/5 21/19/5 37/20/5
f 76/21/6 51/22/6 22/23/6 52/24/6
f 75/25/7 44/26/7 16/27/7 53/28/7
f 74/29/8 54/30/8 20/31/8 36/32/8
f 73/33/9 55/34/9 23/35/9 56/36/9
f 72/37/10 47/38/10 19/39/10 57/40/10
f 71/41/11 58/42/11 13/43/11 29/44/11
f 70/45/12 59/46/12 24/47/12 60/48/12
f 69/49/13 46/50/13 18/51/13 61/52/13
f 68/53/14 62/54/14 17/55/14 33/56/14
f 67/57/15 63/58/15 25/59/15 64/60/15
f 66/61/16 40/62/16 12/63/16 65/64/16
f 63/58/17 66/61/17 65/64/17 25/59/17
f 21/19/18 49/16/18 66/61/18 63/58/18
f 49/16/19 7/15/19 40/62/19 66/61/19
f 46/50/20 67/57/20 64/60/20 18/51/20
f 9/11/21 37/20/21 67/57/21 46/50/21
f 37/20/22 21/19/22 63/58/22 67/57/22
f 34/6/23 68/53/23 33/56/23 8/7/23
f 18/51/24 64/60/24 68/53/24 34/6/24
f 64/60/25 25/59/25 62/54/25 68/53/25
f 59/46/26 69/49/26 61/52/26 24/47/26
f 20/31/27 48/12/27 69/49/27 59/46/27
f 48/12/28 9/11/28 46/50/28 69/49/28
f 30/65/29 70/45/29 60/48/29 14/66/29
f 5/67/30 36/32/30 70/45/30 30/65/30
f 36/32/31 20/31/31 59/46/31 70/45/31
f 42/68/32 71/41/32 29/44/32 3/69/32
f 14/66/33 60/48/33 71/41/33 42/68/33
f 60/48/34 24/47/34 58/42/34 71/41/34
f 55/34/35 72/37/35 57/40/35 23/35/35
f 15/70/36 31/71/36 72/37/36 55/34/36
f 31/71/37 6/72/37 47/38/37 72/37/37
f 26/73/38 73/33/38 56/36/38 10/74/38
f 1/75/32 43/76/32 73/33/32 26/73/32
f 43/76/39 15/70/39 55/34/39 73/33/39
f 38/77/40 74/29/40 36/32/40 5/67/40
f 10/74/41 56/36/41 74/29/41 38/77/41
f 56/36/42 23/35/42 54/30/42 74/29/42
f 51/22/43 75/25/43 53/28/43 22/23/43
f 11/78/44 27/79/44 75/25/44 51/22/44
f 27/79/45 2/80/45 44/26/45 75/25/45
f 47/38/46 76/21/46 52/24/46 19/39/46
f 6/72/47 39/81/47 76/21/47 47/38/47
f 39/81/48 11/78/48 51/22/48 76/21/48
f 35/10/49 77/17/49 37/20/49 9/11/49
f 19/39/50 52/24/50 77/17/50 35/10/50
f 52/24/51 22/23/51 50/18/51 77/17/51
f 50/18/52 78/13/52 49/16/52 21/19/52
f 22/23/53 53/28/53 78/13/53 50/18/53
f 53/28/54 16/27/54 32/14/54 78/13/54
f 54/30/55 79/9/55 48/12/55 20/31/55
f 23/35/56 57/40/56 79/9/56 54/30/56
f 57/40/57 19/39/57 35/10/57 79/9/57
f 58/42/58 80/5/58 41/8/58 13/43/58
f 24/47/59 61/52/59 80/5/59 58/42/59
f 61/52/60 18/51/60 34/6/60 80/5/60
f 62/54/61 81/1/61 45/4/61 17/55/61
f 25/59/62 65/64/62 81/1/62 62/54/62
f 65/64/63 12/63/63 28/2/63 81/1/63
o Pier
v 1.385140 0.109067 0.330938
v 1.385140 0.247856 0.330938
v 1.385140 0.109067 -0.169062
v 1.385140 0.247856 -0.169062
v 1.885140 0.109067 0.330938
v 1.885140 0.247856 0.330938
v 1.885140 0.109067 -0.169062
v 1.885140 0.247856 -0.169062
v 2.235530 0.247856 -0.169062
v 2.235530 0.109067 -0.169062
v 2.235530 0.109067 0.330938
v 2.235530 0.247856 0.330938
v 1.229470 0.109067 -0.169062
v 1.229470 0.109067 0.330938
v 1.229470 0.247856 0.330938
v 1.229470 0.247856 -0.169062
v 1.385140 -0.019194 -0.169062
v 1.385140 -0.019194 0.330938
v 1.885140 -0.019194 -0.169062
v 1.885140 -0.019194 0.330938
v 2.235530 -0.019194 0.330938
v 2.235530 -0.019194 -0.169062
v 1.229470 -0.019194 -0.169062
v 1.229470 -0.019194 0.330938
vn -0.0000 1.0000 -0.0000
vn -0.0000 -0.0000 -1.0000
vn -0.0000 -0.0000 1.0000
vn 1.0000 -0.0000 -0.0000
vn -1.0000 -0.0000 -0.0000
vn -0.0000 -1.0000 -0.0000
vt 0.252446 0.352972
vt 0.252446 0.705987
vt 0.142538 0.705987
vt 0.142538 0.352972
vt 0.252446 0.803977
vt 0.605462 0.803977
vt 0.605462 0.705987
vt 0.605462 0.901967
vt 0.852848 0.803977
vt 0.852848 0.901967
vt 0.252446 0.901967
vt 0.601395 0.820912
vt 0.248379 0.820912
vt 0.605462 0.352972
vt 0.499832 0.901967
vt 0.499832 0.999956
vt 0.146817 0.999956
vt 0.146817 0.901967
vt 0.852848 0.352972
vt 0.852848 0.705987
vt 0.852848 0.803977
vt 0.499832 0.999956
vt 0.852848 0.999956
vt 0.250493 0.816672
vt 0.140585 0.816672
vt 0.142538 0.803977
vt 0.142538 0.901967
vt 0.605462 0.352972
vt 0.605462 -0.000044
vt 0.252446 -0.000043
vt 0.852848 0.352972
vt 0.852848 -0.000044
vt 0.142538 -0.000043
vt 0.142538 0.352972
vt 0.850895 0.816672
vt 0.603509 0.816672
s 0
usemtl Material.001
f 83/82/64 85/83/64 97/84/64 96/85/64
f 84/83/65 85/86/65 89/87/65 88/88/65
f 87/89/66 86/87/66 92/90/66 93/91/66
f 86/87/66 87/89/66 83/92/66 82/86/66
f 91/93/67 92/94/67 102/94/67 103/93/67
f 89/88/64 85/83/64 83/82/64 87/95/64
f 91/96/67 90/97/67 93/98/67 92/99/67
f 84/83/65 88/88/65 100/88/65 98/83/65
f 89/88/64 87/95/64 93/100/64 90/101/64
f 88/88/65 89/87/65 90/102/65 91/101/65
f 95/96/68 96/103/68 97/104/68 94/91/68
f 82/105/66 95/106/66 105/106/66 99/105/66
f 85/86/65 84/83/65 94/84/65 97/107/65
f 82/86/66 83/92/66 96/108/66 95/107/66
f 98/82/69 100/109/69 101/110/69 99/111/69
f 101/110/69 100/109/69 103/112/69 102/113/69
f 98/82/69 99/111/69 105/114/69 104/115/69
f 95/96/68 94/91/68 104/91/68 105/96/68
f 88/88/65 91/101/65 103/101/65 100/88/65
f 94/84/65 84/83/65 98/83/65 104/84/65
f 92/116/66 86/117/66 101/117/66 102/116/66
f 86/117/66 82/105/66 99/105/66 101/117/66
o Bush
v 0.861553 0.310545 0.059208
v 1.073686 0.310545 -0.152924
v 0.861553 0.610545 0.059208
v 1.073686 0.610545 -0.152924
vn 0.7071 -0.0000 0.7071
vt 0.000000 0.000000
vt 1.000000 0.000000
vt 1.000000 1.000000
vt 0.000000 1.000000
s 0
usemtl Bush
f 106/118/70 107/119/70 109/120/70 108/121/70
o Bush.001
v 0.646787 0.377892 0.437977
v 0.858919 0.377892 0.225845
v 0.646787 0.677892 0.437977
v 0.858919 0.677892 0.225845
vn 0.7071 -0.0000 0.7071
vt 0.000000 0.000000
vt 1.000000 0.000000
vt 1.000000 1.000000
vt 0.000000 1.000000
s 0
usemtl Bush
f 110/122/71 111/123/71 113/124/71 112/125/71
o Bush.002
v 0.532350 0.320303 1.088148
v 0.744483 0.320303 0.876016
v 0.532350 0.620303 1.088148
v 0.744483 0.620303 0.876016
vn 0.7071 -0.0000 0.7071
vt 0.000000 0.000000
vt 1.000000 0.000000
vt 1.000000 1.000000
vt 0.000000 1.000000
s 0
usemtl Bush
f 114/126/72 115/127/72 117/128/72 116/129/72
o Bush.003
v 0.011991 0.558913 0.697780
v 0.224123 0.558913 0.485648
v 0.011991 0.858913 0.697780
v 0.224123 0.858913 0.485648
vn 0.7071 -0.0000 0.7071
vt 0.000000 0.000000
vt 1.000000 0.000000
vt 1.000000 1.000000
vt 0.000000 1.000000
s 0
usemtl Bush
f 118/130/73 119/131/73 121/132/73 120/133/73
o Bush.004
v -0.023804 0.599756 0.424441
v 0.188328 0.599756 0.212309
v -0.023804 0.899756 0.424441
v 0.188328 0.899756 0.212309
vn 0.7071 -0.0000 0.7071
vt 0.000000 0.000000
vt 1.000000 0.000000
vt 1.000000 1.000000
vt 0.000000 1.000000
s 0
usemtl Bush
f 122/134/74 123/135/74 125/136/74 124/137/74
o Bush.005
v 0.158540 0.615647 0.092601
v 0.370672 0.615647 -0.119531
v 0.158540 0.915647 0.092601
v 0.370672 0.915647 -0.119531
vn 0.7071 -0.0000 0.7071
vt 0.000000 0.000000
vt 1.000000 0.000000
vt 1.000000 1.000000
vt 0.000000 1.000000
s 0
usemtl Bush
f 126/138/75 127/139/75 129/140/75 128/141/75
o Bush.006
v 0.461047 0.576784 -0.620104
v 0.673179 0.576784 -0.832236
v 0.461047 0.876784 -0.620104
v 0.673179 0.876784 -0.832236
vn 0.7071 -0.0000 0.7071
vt 0.000000 0.000000
vt 1.000000 0.000000
vt 1.000000 1.000000
vt 0.000000 1.000000
s 0
usemtl Bush
f 130/142/76 131/143/76 133/144/76 132/145/76
o Bush.007
v 0.751621 0.443894 -0.819630
v 0.957922 0.377870 -1.027189
v 0.826435 0.733865 -0.837510
v 1.032736 0.667841 -1.045069
vn 0.6819 -0.1315 0.7196
vt 0.000000 0.000000
vt 1.000000 0.000000
vt 1.000000 1.000000
vt 0.000000 1.000000
s 0
usemtl Bush
f 134/146/77 135/147/77 137/148/77 136/149/77
o Bush.008
v 0.190754 0.728299 -0.406652
v 0.402886 0.728299 -0.618784
v 0.190754 1.028299 -0.406652
v 0.402886 1.028299 -0.618784
vn 0.7071 -0.0000 0.7071
vt 0.000000 0.000000
vt 1.000000 0.000000
vt 1.000000 1.000000
vt 0.000000 1.000000
s 0
usemtl Bush
f 138/150/78 139/151/78 141/152/78 140/153/78
