# Blender 4.3.0
# www.blender.org
mtllib island.mtl
o Terrain
v -2.500000 0.000000 2.500000
v 2.500000 0.000000 2.500000
v -2.500000 0.000000 -2.500000
v 2.500000 0.000000 -2.500000
v -2.499136 -0.002578 0.000308
v -0.000217 0.003005 2.499658
v 2.500000 0.000000 0.000000
v -0.000885 0.002261 -2.500355
v -0.508739 0.782077 0.136201
v -2.500000 0.000000 1.250000
v 1.250000 0.000000 2.500000
v 2.499351 0.002547 -1.250070
v -1.250000 0.000000 -2.500000
v -2.500000 0.000000 -1.250000
v -1.250000 0.000000 2.500000
v 2.499405 0.001086 1.249702
v 1.249263 0.004416 -2.499402
v -0.300878 0.582219 -1.153266
v -0.233086 0.360967 1.311311
v -1.476814 0.341950 0.063583
v 1.054167 0.304538 0.044074
v 1.159440 0.207444 1.263455
v -1.325809 0.110938 1.272697
v -1.329104 0.120779 -1.228480
v 1.085492 0.321781 -1.210490
v -2.500000 0.000000 1.875000
v 1.875000 0.000000 2.500000
v 2.500000 0.000000 -1.875000
v -1.875000 0.000000 -2.500000
v -2.499855 -0.000432 -0.624948
v -0.625000 0.000000 2.500000
v 2.500000 0.000000 0.625000
v 0.625000 0.000000 -2.500000
v -0.177854 0.399629 -1.909136
v -0.420506 0.646384 0.737527
v -1.924950 0.069044 0.016702
v 0.247557 0.633003 0.046699
v -2.499528 -0.001409 0.625169
v 0.625000 0.000000 2.500000
v 2.500000 0.000000 -0.625000
v -0.625000 0.000000 -2.500000
v -2.500000 0.000000 -1.875000
v -1.875000 0.000000 2.500000
v 2.500000 0.000000 1.875000
v 1.875000 0.000000 -2.500000
v -0.485932 0.948433 -0.516541
v -0.066303 0.216800 1.874748
v -1.043993 0.641864 0.113067
v 1.815334 0.098057 0.013232
v 1.201863 0.336290 0.536533
v 1.246667 0.006504 1.875665
v 0.435119 0.299726 1.297428
v 1.839379 0.064466 1.234409
v -1.429401 0.268429 0.676171
v -1.251713 0.000901 1.876205
v -1.875089 -0.003949 1.251785
v -0.807832 0.278675 1.299946
v -1.253064 0.004935 -1.874277
v -1.431408 0.274423 -0.574546
v -1.876889 0.001428 -1.248858
v -0.815145 0.301636 -1.199076
v 1.208044 0.230981 -1.843812
v 1.056366 0.311346 -0.579189
v 0.432662 0.307077 -1.203402
v 1.836431 0.144225 -1.253103
v 1.836056 0.065077 -0.616518
v 0.305665 0.772275 -0.616493
v 0.585446 0.066313 -1.866787
v -0.977306 0.556603 -0.531894
v -1.907065 0.044094 -0.614179
v -1.875000 0.000000 -1.875000
v -0.660667 0.058489 1.884125
v -1.875000 0.000000 1.875000
v -1.905402 0.039128 0.636414
v 1.874322 0.001238 1.874660
v 0.586656 0.063749 1.883477
v 0.274698 0.542984 0.715610
v 1.835579 0.065393 0.633201
v -0.970677 0.528117 0.718901
v -0.667008 0.071910 -1.867918
v 1.873603 0.006884 -1.874527
v -1.452595 0.305932 -0.276785
v -0.131272 0.295034 -2.064757
v -0.134048 0.275358 1.645889
v -0.799999 0.278148 -1.267461
v -0.881395 0.278324 -1.202866
v 1.216007 0.260636 0.037516
v -0.334210 0.294875 -1.895961
v -1.562510 0.289763 0.054618
v 1.134040 0.285812 -1.461373
v 0.490285 0.216272 -1.453601
v 1.335770 0.279048 0.556959
v -1.531714 0.219142 0.667625
v 1.167793 0.232816 1.120314
v 0.120015 0.269557 -1.892610
v 0.109090 0.274327 -1.893216
v 1.342198 0.261084 -1.225057
v -0.785363 0.245057 1.389138
v 0.922420 0.237642 1.274572
v -1.358227 0.160224 1.086019
v -1.357080 0.320611 -0.567565
v 0.487456 0.218224 1.499837
v 1.333234 0.223896 -0.592445
v -0.960073 0.229375 1.291937
v -0.413138 0.207789 1.629979
v 0.075763 0.265839 1.598817
v 0.312801 0.222732 1.603643
v 1.321388 0.288470 0.424828
v 1.412597 0.235397 -0.900408
v 1.225543 0.220611 1.066844
v 1.336642 0.255760 0.671435
v 1.154194 0.276927 -0.291579
v 1.302250 0.231332 -0.395769
v 0.063135 0.282941 -2.044178
v 0.311099 0.254535 -1.544383
v 0.614922 0.223069 1.436137
v -1.111262 0.273918 -0.949929
v -1.596472 0.231255 0.388679
v 1.299886 0.241930 -1.363131
vn 0.0055 1.0000 -0.0055
vn -0.2639 0.8883 -0.3758
vn -0.2339 0.9455 0.2267
vn 0.1206 0.9924 0.0241
vn 0.2953 0.9554 0.0035
vn 0.1080 0.9419 0.3181
vn 0.0495 0.9976 0.0493
vn -0.4906 0.8669 0.0883
vn -0.0996 0.9908 0.0917
vn -0.2051 0.9180 0.3395
vn -0.0040 1.0000 -0.0040
vn -0.3092 0.9349 -0.1742
vn -0.4678 0.7431 -0.4786
vn -0.1266 0.9655 -0.2274
vn 0.2948 0.9070 -0.3008
vn 0.1539 0.9860 0.0638
vn 0.2480 0.9676 0.0463
vn 0.2922 0.9563 0.0084
vn 0.1197 0.9925 -0.0241
vn 0.1958 0.8336 -0.5165
vn 0.2272 0.9454 0.2335
vn 0.4466 0.8864 0.1216
vn 0.3805 0.8162 -0.4347
vn 0.3657 0.9096 -0.1971
vn -0.0656 0.9640 -0.2578
vn -0.3238 0.9045 -0.2774
vn -0.5329 0.8334 -0.1466
vn -0.4607 0.8872 0.0237
vn -0.0374 0.9987 -0.0344
vn -0.0986 0.9949 -0.0194
vn -0.4682 0.8795 -0.0853
vn -0.0000 1.0000 -0.0000
vn -0.0011 1.0000 -0.0011
vn -0.1034 0.9898 -0.0976
vn -0.1968 0.9352 0.2943
vn -0.0476 0.9977 0.0492
vn -0.1261 0.9667 0.2225
vn 0.0032 1.0000 -0.0032
vn -0.0007 1.0000 0.0007
vn -0.0961 0.9951 0.0245
vn -0.0303 0.9990 0.0343
vn -0.3133 0.9324 0.1802
vn 0.1149 0.9742 0.1943
vn 0.0042 1.0000 0.0062
vn 0.0010 1.0000 0.0010
vn 0.1894 0.9367 0.2944
vn 0.1171 0.9712 0.2073
vn 0.0448 0.9975 0.0550
vn 0.1809 0.9710 0.1561
vn 0.1207 0.9160 0.3827
vn 0.2058 0.9454 0.2528
vn 0.2704 0.9553 -0.1196
vn 0.2829 0.9551 0.0883
vn 0.0968 0.9953 -0.0004
vn -0.5362 0.8247 0.1799
vn -0.3085 0.9051 0.2925
vn -0.1680 0.8741 0.4558
vn -0.0548 0.9965 -0.0628
vn -0.2016 0.9384 -0.2805
vn -0.4676 0.8296 -0.3052
vn 0.1676 0.9708 -0.1713
vn 0.2626 0.9559 -0.1313
vn 0.1140 0.9877 -0.1074
vn -0.5150 0.8478 -0.1264
vn -0.1714 0.9213 0.3491
vn 0.1206 0.9613 0.2475
vn -0.5063 0.8531 -0.1263
vn 0.1326 0.9746 0.1805
vn 0.3388 0.9404 -0.0305
vn -0.3012 0.8648 0.4018
vn 0.2836 0.9545 0.0921
vn 0.3627 0.9137 0.1831
vn 0.2780 0.9603 -0.0219
vn -0.4855 0.6513 -0.5831
vn -0.4038 0.8282 0.3887
vn 0.2221 0.9279 -0.2993
vn -0.2899 0.8836 -0.3677
vn 0.3763 0.9031 -0.2070
vn 0.1345 0.9308 0.3400
vn -0.5371 0.7541 -0.3780
vn -0.4342 0.8495 0.2997
vn -0.1714 0.9447 -0.2796
vn -0.4344 0.8091 -0.3958
vn -0.4573 0.8796 0.1312
vn 0.2635 0.9543 -0.1409
vt 4.848868 3.981302
vt 5.968873 3.799880
vt 5.973935 5.141951
vt 4.676910 5.376136
vt -0.500691 4.374201
vt 0.225174 4.651034
vt 0.604994 5.057251
vt 0.713578 5.830233
vt -0.539417 5.613121
vt -1.164177 -1.226599
vt -0.158985 -0.623945
vt -0.306999 0.702496
vt -1.750660 -0.438683
vt 4.084654 -0.391021
vt 6.243106 -0.211147
vt 6.445463 0.751186
vt 4.423202 0.628775
vt 1.234803 -0.102464
vt 2.601907 0.101512
vt 2.771324 0.985879
vt 1.770052 1.578256
vt 1.624537 -3.192436
vt 2.800578 -3.086872
vt 2.574121 -1.698047
vt 2.177866 -1.755897
vt 1.669545 -2.168238
vt 1.453451 -2.329905
vt 4.067036 -2.836921
vt 5.570754 -2.381714
vt 5.769041 -0.977024
vt 3.852873 -1.383463
vt -3.205728 -1.892934
vt -2.289072 -1.670187
vt -2.623210 -1.358651
vt -2.783744 -0.915982
vt -3.585480 -1.108036
vt -2.612183 -3.591457
vt -1.410548 -3.402945
vt -1.588483 -2.282429
vt -2.769475 -2.519909
vt -0.381860 -3.464479
vt 0.445166 -3.257908
vt 0.304870 -2.780388
vt -0.106280 -2.841107
vt -0.733268 -2.421958
vt -3.122343 4.064705
vt -1.804476 4.118027
vt -1.830862 5.572185
vt -3.191588 5.555619
vt -3.496741 0.358164
vt -2.587052 1.035757
vt -2.044128 2.599286
vt -2.991228 1.772618
vt -1.797459 1.032588
vt -0.227856 2.016218
vt 0.267643 3.324891
vt -0.911292 2.931419
vt 2.111008 5.052094
vt 3.547962 4.631771
vt 3.290846 5.876906
vt 1.912617 5.978319
vt 2.069600 2.775017
vt 3.478354 1.832690
vt 3.481010 3.291126
vt 1.981359 3.829803
vt 5.006184 1.351080
vt 6.384057 1.599873
vt 6.582284 2.240461
vt 5.724202 2.011600
vt 4.020886 1.661670
vt 4.302091 2.159075
vt 4.247837 2.853725
vt 3.122545 0.909952
vt 3.352474 1.381932
vt 3.760765 1.428050
vt 0.566202 4.781097
vt 1.146934 4.882972
vt 1.169044 4.886851
vt 2.030257 4.290796
vt 1.628340 4.364712
vt 3.507532 3.822206
vt -2.457810 1.035238
vt -1.746452 2.095692
vt -1.057314 2.888607
vt -2.594180 -0.870573
vt -2.590378 0.146234
vt -4.648352 0.808116
vt -4.303531 2.469921
vt -4.922525 -0.682469
vt -4.400556 3.875405
vt -4.468345 5.459107
vt -1.029338 -2.248309
vt -1.782755 -4.609382
vt -0.541053 -4.713350
vt 0.464957 -4.592172
vt -3.974074 -4.254655
vt -4.301429 -3.093178
vt -4.274665 -4.997401
vt -3.035809 -4.617131
vt -4.700433 -2.185298
vt -1.729186 -2.071747
vt 2.648185 -4.668825
vt 4.001366 -4.517100
vt 5.328294 -4.420023
vt 1.126593 -2.594293
vt 0.688019 -2.628511
vt 1.370547 -4.646685
vt 0.099767 -2.082286
vt 1.363186 -1.874834
vt 2.579592 -1.343688
vt 2.915219 -0.002563
vt 2.986498 0.222350
vt 2.918584 -0.268154
vt 2.696860 -1.207996
vt -2.038097 -1.609200
vt -0.796589 -2.234106
vt -0.869311 3.078934
vt 4.025849 3.298411
s 0
usemtl Material
f 79/10/3 35/11/3 9/12/3 48/13/3
f 77/18/5 50/19/5 21/20/5 37/21/5
f 69/54/13 46/55/13 18/56/13 61/57/13
f 67/62/15 63/63/15 25/64/15 64/65/15
f 63/63/17 103/70/17 109/71/17 97/72/17 25/64/17
f 21/20/18 87/73/18 112/74/18 113/75/18 103/70/18 63/63/18
f 46/55/20 67/62/20 64/65/20 18/56/20
f 9/12/21 37/21/21 67/62/21 46/55/21
f 37/21/22 21/20/22 63/63/22 67/62/22
f 18/56/24 64/65/24 91/79/24 115/80/24 96/77/24 34/76/24
f 64/65/25 25/64/25 90/81/25 91/79/25
f 20/85/27 48/13/27 69/54/27 101/82/27 82/86/27
f 48/13/28 9/12/28 46/55/28 69/54/28
f 35/11/49 77/18/49 37/21/49 9/12/49
f 19/108/50 52/109/50 77/18/50 35/11/50
f 52/109/51 99/25/51 94/110/51 50/19/51 77/18/51
f 50/19/52 92/111/52 108/112/52 87/73/52 21/20/52
f 54/115/55 79/10/55 48/13/55 20/85/55
f 57/116/57 19/108/57 35/11/57 79/10/57
f 61/57/60 18/56/60 34/76/60 88/6/60 85/117/60
f 25/64/62 97/72/62 119/118/62 90/81/62
f 98/45/65 105/44/65 84/43/65 19/108/65 57/116/65
f 84/43/66 106/106/66 107/105/66 102/27/66 52/109/66 19/108/66
f 82/86/67 89/35/67 20/85/67
f 104/92/70 98/45/70 57/116/70
f 94/110/72 110/114/72 111/113/72 92/111/72 50/19/72
f 100/101/75 104/92/75 57/116/75 79/10/75 54/115/75
f 85/117/77 86/84/77 61/57/77
f 102/27/79 116/26/79 99/25/79 52/109/79
f 93/33/81 100/101/81 54/115/81
f 86/84/83 117/83/83 101/82/83 69/54/83 61/57/83
f 89/35/84 118/34/84 93/33/84 54/115/84 20/85/84
usemtl Sand
f 81/1/1 28/2/1 4/3/1 45/4/1
f 80/5/2 88/6/2 83/7/2 8/8/2 41/9/2
f 78/14/4 32/15/4 7/16/4 49/17/4
f 76/22/6 51/23/6 22/24/6 99/25/6 116/26/6 102/27/6
f 75/28/7 44/29/7 16/30/7 53/31/7
f 74/32/8 93/33/8 118/34/8 89/35/8 36/36/8
f 73/37/9 55/38/9 23/39/9 56/40/9
f 72/41/10 47/42/10 84/43/10 105/44/10 98/45/10
f 71/46/11 58/47/11 13/48/11 29/49/11
f 70/50/12 59/51/12 24/52/12 60/53/12
f 68/58/14 62/59/14 17/60/14 33/61/14
f 66/66/16 40/67/16 12/68/16 65/69/16
f 49/17/19 7/16/19 40/67/19 66/66/19
f 34/76/23 96/77/23 95/78/23 83/7/23
f 59/51/26 101/82/26 117/83/26 86/84/26 24/52/26
f 30/87/29 70/50/29 60/53/29 14/88/29
f 5/89/30 36/36/30 70/50/30 30/87/30
f 36/36/31 89/35/31 82/86/31 59/51/31 70/50/31
f 42/90/32 71/46/32 29/49/32 3/91/32
f 14/88/33 60/53/33 71/46/33 42/90/33
f 60/53/34 24/52/34 58/47/34 71/46/34
f 55/38/35 72/41/35 98/45/35 104/92/35 23/39/35
f 15/93/36 31/94/36 72/41/36 55/38/36
f 31/94/37 6/95/37 47/42/37 72/41/37
f 26/96/38 73/37/38 56/40/38 10/97/38
f 1/98/32 43/99/32 73/37/32 26/96/32
f 43/99/39 15/93/39 55/38/39 73/37/39
f 38/100/40 74/32/40 36/36/40 5/89/40
f 10/97/41 56/40/41 74/32/41 38/100/41
f 56/40/42 23/39/42 100/101/42 93/33/42 74/32/42
f 51/23/43 75/28/43 53/31/43 22/24/43
f 11/102/44 27/103/44 75/28/44 51/23/44
f 27/103/45 2/104/45 44/29/45 75/28/45
f 47/42/46 76/22/46 102/27/46 107/105/46 106/106/46 84/43/46
f 6/95/47 39/107/47 76/22/47 47/42/47
f 39/107/48 11/102/48 51/23/48 76/22/48
f 22/24/53 53/31/53 78/14/53 92/111/53 111/113/53 110/114/53 94/110/53
f 53/31/54 16/30/54 32/15/54 78/14/54
f 23/39/56 104/92/56 100/101/56
f 58/47/58 80/5/58 41/9/58 13/48/58
f 24/52/59 86/84/59 85/117/59 80/5/59 58/47/59
f 62/59/61 81/1/61 45/4/61 17/60/61
f 65/69/63 12/68/63 28/2/63 81/1/63
f 82/86/64 101/82/64 59/51/64
f 94/110/68 99/25/68 22/24/68
f 87/73/69 108/112/69 92/111/69 78/14/69 49/17/69
f 97/72/71 109/71/71 103/70/71 66/66/71 65/69/71
f 103/70/73 113/75/73 112/74/73 87/73/73 49/17/73 66/66/73
f 83/7/74 88/6/74 34/76/74
f 83/7/76 95/78/76 68/58/76 33/61/76 8/8/76
f 96/77/78 115/80/78 91/79/78 68/58/78 95/78/78
f 85/117/80 88/6/80 80/5/80
f 91/79/82 90/81/82 62/59/82 68/58/82
f 90/81/85 119/118/85 97/72/85 65/69/85 81/1/85 62/59/85
o Pier
v 1.385140 0.109067 0.330938
v 1.385140 0.247856 0.330938
v 1.385140 0.109067 -0.169062
v 1.385140 0.247856 -0.169062
v 1.885140 0.109067 0.330938
v 1.885140 0.247856 0.330938
v 1.885140 0.109067 -0.169062
v 1.885140 0.247856 -0.169062
v 2.235530 0.247856 -0.169062
v 2.235530 0.109067 -0.169062
v 2.235530 0.109067 0.330938
v 2.235530 0.247856 0.330938
v 1.229470 0.109067 -0.169062
v 1.229470 0.109067 0.330938
v 1.229470 0.247856 0.330938
v 1.229470 0.247856 -0.169062
v 1.385140 -0.019194 -0.169062
v 1.385140 -0.019194 0.330938
v 1.885140 -0.019194 -0.169062
v 1.885140 -0.019194 0.330938
v 2.235530 -0.019194 0.330938
v 2.235530 -0.019194 -0.169062
v 1.229470 -0.019194 -0.169062
v 1.229470 -0.019194 0.330938
vn -0.0000 1.0000 -0.0000
vn -0.0000 -0.0000 -1.0000
vn -0.0000 -0.0000 1.0000
vn 1.0000 -0.0000 -0.0000
vn -1.0000 -0.0000 -0.0000
vn -0.0000 -1.0000 -0.0000
vt 0.252446 0.352972
vt 0.252446 0.705987
vt 0.142538 0.705987
vt 0.142538 0.352972
vt 0.252446 0.803977
vt 0.605462 0.803977
vt 0.605462 0.705987
vt 0.605462 0.901967
vt 0.852848 0.803977
vt 0.852848 0.901967
vt 0.252446 0.901967
vt 0.601395 0.820912
vt 0.248379 0.820912
vt 0.605462 0.352972
vt 0.499832 0.901967
vt 0.499832 0.999956
vt 0.146817 0.999956
vt 0.146817 0.901967
vt 0.852848 0.352972
vt 0.852848 0.705987
vt 0.852848 0.803977
vt 0.499832 0.999956
vt 0.852848 0.999956
vt 0.250493 0.816672
vt 0.140585 0.816672
vt 0.142538 0.803977
vt 0.142538 0.901967
vt 0.605462 0.352972
vt 0.605462 -0.000044
vt 0.252446 -0.000043
vt 0.852848 0.352972
vt 0.852848 -0.000044
vt 0.142538 -0.000043
vt 0.142538 0.352972
vt 0.850895 0.816672
vt 0.603509 0.816672
s 0
usemtl Material.001
f 121/119/86 123/120/86 135/121/86 134/122/86
f 122/120/87 123/123/87 127/124/87 126/125/87
f 125/126/88 124/124/88 130/127/88 131/128/88
f 124/124/88 125/126/88 121/129/88 120/123/88
f 129/130/89 130/131/89 140/131/89 141/130/89
f 127/125/86 123/120/86 121/119/86 125/132/86
f 129/133/89 128/134/89 131/135/89 130/136/89
f 122/120/87 126/125/87 138/125/87 136/120/87
f 127/125/86 125/132/86 131/137/86 128/138/86
f 126/125/87 127/124/87 128/139/87 129/138/87
f 133/133/90 134/140/90 135/141/90 132/128/90
f 120/142/88 133/143/88 143/143/88 137/142/88
f 123/123/87 122/120/87 132/121/87 135/144/87
f 120/123/88 121/129/88 134/145/88 133/144/88
f 136/119/91 138/146/91 139/147/91 137/148/91
f 139/147/91 138/146/91 141/149/91 140/150/91
f 136/119/91 137/148/91 143/151/91 142/152/91
f 133/133/90 132/128/90 142/128/90 143/133/90
f 126/125/87 129/138/87 141/138/87 138/125/87
f 132/121/87 122/120/87 136/120/87 142/121/87
f 130/153/88 124/154/88 139/154/88 140/153/88
f 124/154/88 120/142/88 137/142/88 139/154/88
o Bush
v 0.861553 0.310545 0.059208
v 1.073686 0.310545 -0.152924
v 0.861553 0.610545 0.059208
v 1.073686 0.610545 -0.152924
vn 0.7071 -0.0000 0.7071
vt 0.000000 0.000000
vt 1.000000 0.000000
vt 1.000000 1.000000
vt 0.000000 1.000000
s 0
usemtl Bush
f 144/155/92 145/156/92 147/157/92 146/158/92
o Bush.001
v 0.646787 0.377892 0.437977
v 0.858919 0.377892 0.225845
v 0.646787 0.677892 0.437977
v 0.858919 0.677892 0.225845
vn 0.7071 -0.0000 0.7071
vt 0.000000 0.000000
vt 1.000000 0.000000
vt 1.000000 1.000000
vt 0.000000 1.000000
s 0
usemtl Bush
f 148/159/93 149/160/93 151/161/93 150/162/93
o Bush.002
v 0.532350 0.320303 1.088148
v 0.744483 0.320303 0.876016
v 0.532350 0.620303 1.088148
v 0.744483 0.620303 0.876016
vn 0.7071 -0.0000 0.7071
vt 0.000000 0.000000
vt 1.000000 0.000000
vt 1.000000 1.000000
vt 0.000000 1.000000
s 0
usemtl Bush
f 152/163/94 153/164/94 155/165/94 154/166/94
o Bush.003
v 0.011991 0.558913 0.697780
v 0.224123 0.558913 0.485648
v 0.011991 0.858913 0.697780
v 0.224123 0.858913 0.485648
vn 0.7071 -0.0000 0.7071
vt 0.000000 0.000000
vt 1.000000 0.000000
vt 1.000000 1.000000
vt 0.000000 1.000000
s 0
usemtl Bush
f 156/167/95 157/168/95 159/169/95 158/170/95
o Bush.004
v -0.023804 0.599756 0.424441
v 0.188328 0.599756 0.212309
v -0.023804 0.899756 0.424441
v 0.188328 0.899756 0.212309
vn 0.7071 -0.0000 0.7071
vt 0.000000 0.000000
vt 1.000000 0.000000
vt 1.000000 1.000000
vt 0.000000 1.000000
s 0
usemtl Bush
f 160/171/96 161/172/96 163/173/96 162/174/96
o Bush.005
v 0.158540 0.615647 0.092601
v 0.370672 0.615647 -0.119531
v 0.158540 0.915647 0.092601
v 0.370672 0.915647 -0.119531
vn 0.7071 -0.0000 0.7071
vt 0.000000 0.000000
vt 1.000000 0.000000
vt 1.000000 1.000000
vt 0.000000 1.000000
s 0
usemtl Bush
f 164/175/97 165/176/97 167/177/97 166/178/97
o Bush.006
v 0.461047 0.576784 -0.620104
v 0.673179 0.576784 -0.832236
v 0.461047 0.876784 -0.620104
v 0.673179 0.876784 -0.832236
vn 0.7071 -0.0000 0.7071
vt 0.000000 0.000000
vt 1.000000 0.000000
vt 1.000000 1.000000
vt 0.000000 1.000000
s 0
usemtl Bush
f 168/179/98 169/180/98 171/181/98 170/182/98
o Bush.007
v 0.751621 0.443894 -0.819630
v 0.957922 0.377870 -1.027189
v 0.826435 0.733865 -0.837510
v 1.032736 0.667841 -1.045069
vn 0.6819 -0.1315 0.7196
vt 0.000000 0.000000
vt 1.000000 0.000000
vt 1.000000 1.000000
vt 0.000000 1.000000
s 0
usemtl Bush
f 172/183/99 173/184/99 175/185/99 174/186/99
o Bush.008
v 0.190754 0.728299 -0.406652
v 0.402886 0.728299 -0.618784
v 0.190754 1.028299 -0.406652
v 0.402886 1.028299 -0.618784
vn 0.7071 -0.0000 0.7071
vt 0.000000 0.000000
vt 1.000000 0.000000
vt 1.000000 1.000000
vt 0.000000 1.000000
s 0
usemtl Bush
f 176/187/100 177/188/100 179/189/100 178/190/100
o Ship
v 1.621994 0.072474 0.713993
v 2.429582 0.072474 0.409811
v 1.621994 0.578831 0.713993
v 2.429582 0.578831 0.409811
vn 0.3525 -0.0000 0.9358
vt 0.026067 0.120688
vt 0.936505 0.120688
vt 0.936505 0.912944
vt 0.026067 0.912944
s 0
usemtl Ship
f 180/191/101 181/192/101 183/193/101 182/194/101
