<svg width="4006" height="929" viewBox="0 0 4006 929" fill="none" xmlns="http://www.w3.org/2000/svg">
<mask id="mask0_11_14" style="mask-type:alpha" maskUnits="userSpaceOnUse" x="-28" y="-11" width="759" height="930">
<path d="M702.5 881C702.5 886.523 698.023 891 692.5 891H10C4.47717 891 0 886.523 0 881V27C0 21.4772 4.47715 17 10 17H692.5C698.023 17 702.5 21.4772 702.5 27V881ZM249 252.5C243.477 252.5 239 256.977 239 262.5V636.5C239 636.553 239.009 636.606 239.025 636.656L252.025 676.156C252.092 676.361 252.284 676.5 252.499 676.5H377C382.523 676.5 387 672.023 387 666.5V262.5C387 256.977 382.523 252.5 377 252.5H249Z" fill="#D9D9D9"/>
<path d="M239.025 636.656L265.622 627.903L265.605 627.852L265.589 627.802L239.025 636.656ZM252.025 676.156L278.641 667.461L278.632 667.432L278.622 667.403L252.025 676.156ZM692.5 891V863H10V891V919H692.5V891ZM0 881H28V27H0H-28V881H0ZM10 17V45H692.5V17V-11H10V17ZM702.5 27H674.5V881H702.5H730.5V27H702.5ZM239 262.5H211V636.5H239H267V262.5H239ZM239.025 636.656L212.429 645.41L225.429 684.91L252.025 676.156L278.622 667.403L265.622 627.903L239.025 636.656ZM252.499 676.5V704.5H377V676.5V648.5H252.499V676.5ZM387 666.5H415V262.5H387H359V666.5H387ZM377 252.5V224.5H249V252.5V280.5H377V252.5ZM387 262.5H415C415 241.513 397.987 224.5 377 224.5V252.5V280.5C367.059 280.5 359 272.441 359 262.5H387ZM377 676.5V704.5C397.987 704.5 415 687.487 415 666.5H387H359C359 656.559 367.059 648.5 377 648.5V676.5ZM252.025 676.156L225.41 684.852C229.239 696.571 240.17 704.5 252.499 704.5V676.5V648.5C264.397 648.5 274.946 656.151 278.641 667.461L252.025 676.156ZM239 636.5H211C211 639.563 211.494 642.605 212.462 645.511L239.025 636.656L265.589 627.802C266.523 630.606 267 633.543 267 636.5H239ZM239 262.5H267C267 272.441 258.941 280.5 249 280.5V252.5V224.5C228.013 224.5 211 241.513 211 262.5H239ZM692.5 17V45C682.559 45 674.5 36.9412 674.5 27H702.5H730.5C730.5 6.01312 713.487 -11 692.5 -11V17ZM0 27H28C28 36.9411 19.9411 45 10 45V17V-11C-10.9868 -11 -28 6.01318 -28 27H0ZM10 891V863C19.9411 863 28 871.059 28 881H0H-28C-28 901.987 -10.9867 919 10 919V891ZM692.5 891V919C713.487 919 730.5 901.987 730.5 881H702.5H674.5C674.5 871.059 682.559 863 692.5 863V891Z" fill="black"/>
</mask>
<g mask="url(#mask0_11_14)">
<path d="M102.214 875L47.8397 780.82C46.9621 779.3 46.5 777.576 46.5 775.82V251.754C46.5 250.27 46.8304 248.804 47.4672 247.464L148.288 35.2094C149.944 31.7222 153.46 29.5 157.321 29.5H487.725C491.127 29.5 494.295 31.229 496.135 34.0896L583.91 170.528C584.948 172.142 585.5 174.02 585.5 175.939V670.102C585.5 671.995 584.963 673.849 583.95 675.449L457.444 875.348C455.611 878.244 452.422 880 448.994 880H110.875C107.302 880 104.001 878.094 102.214 875Z" fill="#AFD238" stroke="#E6EFEA" stroke-width="56"/>
<path d="M376.5 253H249.5C243.977 253 239.5 257.477 239.5 263V634.897C239.5 635.959 239.669 637.014 240.001 638.023L250.238 669.126C251.588 673.228 255.418 676 259.737 676H376.5C382.023 676 386.5 671.523 386.5 666V263C386.5 257.477 382.023 253 376.5 253Z" stroke="#E6EFEA" stroke-width="56"/>
</g>
<path d="M624 760.82V357.309C624 355.79 624.346 354.29 625.013 352.924L671.76 257.115C673.437 253.679 676.925 251.5 680.748 251.5H782.248C785.536 251.5 788.615 253.117 790.481 255.825L806.068 278.437C807.219 280.106 807.835 282.086 807.835 284.113V624.817C807.835 625.931 808.021 627.037 808.385 628.09L823.17 670.773C824.565 674.8 828.358 677.5 832.619 677.5H949.244C954.767 677.5 959.244 673.023 959.244 667.5V357.679C959.244 355.924 959.706 354.2 960.584 352.679L1016.11 256.5C1017.9 253.406 1021.2 251.5 1024.77 251.5H1125.36C1128.01 251.5 1130.55 252.554 1132.43 254.429L1156.07 278.071C1157.95 279.946 1159 282.49 1159 285.142V657.773C1159 659.558 1158.52 661.311 1157.62 662.85L1036.4 868.562C1034.6 871.613 1031.33 873.485 1027.79 873.485H693.273C689.701 873.485 686.4 871.579 684.613 868.485L625.34 765.82C624.462 764.3 624 762.576 624 760.82Z" fill="#AFD238" stroke="#E6EFEA" stroke-width="56"/>
<path d="M1240.92 253.101L1197.29 356.131C1196.77 357.364 1196.5 358.69 1196.5 360.03V442C1196.5 447.523 1200.98 452 1206.5 452H1297.5C1303.02 452 1307.5 456.477 1307.5 462V771.972C1307.5 773.946 1308.08 775.877 1309.18 777.519L1388.53 896.547C1390.39 899.329 1393.51 901 1396.85 901H1597.34C1601.12 901 1604.57 898.872 1606.27 895.5L1731.43 647.123C1732.13 645.727 1732.5 644.186 1732.5 642.623V604.142C1732.5 601.49 1731.45 598.946 1729.57 597.071L1706.43 573.929C1704.55 572.054 1702.01 571 1699.36 571H1597.16C1593.12 571 1589.49 573.421 1587.93 577.141L1527.73 721.047C1523.51 731.123 1508.5 728.11 1508.5 717.188V462C1508.5 456.477 1512.98 452 1518.5 452H1543.02C1546.16 452 1549.11 450.529 1551 448.027L1616.98 360.675C1618.29 358.939 1619 356.823 1619 354.648V279.642C1619 276.99 1617.95 274.446 1616.07 272.571L1593.43 249.929C1591.55 248.054 1589.01 247 1586.36 247H1518.5C1512.98 247 1508.5 242.523 1508.5 237V64.1421C1508.5 61.49 1507.45 58.9464 1505.57 57.0711L1482.43 33.9289C1480.55 32.0536 1478.01 31 1475.36 31H1365.81C1361.95 31 1358.44 33.2153 1356.78 36.6942L1308.47 137.957C1307.83 139.302 1307.5 140.773 1307.5 142.263V237C1307.5 242.523 1303.02 247 1297.5 247H1250.13C1246.11 247 1242.48 249.403 1240.92 253.101Z" fill="#AFD238" stroke="#E6EFEA" stroke-width="56"/>
<path d="M2114.5 144.019V236V237C2114.5 242.523 2118.98 247 2124.5 247H2274.5C2280.02 247 2284.5 251.477 2284.5 257V876.5C2284.5 882.023 2288.98 886.5 2294.5 886.5H2403.11C2406.2 886.5 2409.11 885.075 2411 882.639L2479.39 794.708C2480.76 792.953 2481.5 790.793 2481.5 788.569V257C2481.5 251.477 2485.98 247 2491.5 247H2580.27C2583.55 247 2586.61 245.397 2588.48 242.708L2656.71 144.574C2657.88 142.898 2658.5 140.906 2658.5 138.865V67.0575C2658.5 64.4555 2657.49 61.956 2655.67 60.0896L2627.45 31.0321C2625.56 29.0938 2622.98 28 2620.27 28H2169.14C2165.12 28 2161.48 30.4113 2159.92 34.1194L2115.28 140.139C2114.77 141.367 2114.5 142.687 2114.5 144.019Z" fill="#AFD238" stroke="#E6EFEA" stroke-width="56"/>
<mask id="mask1_11_14" style="mask-type:alpha" maskUnits="userSpaceOnUse" x="2466" y="156" width="808" height="774">
<path d="M3245.47 185.165L2994.47 900.711C2994.4 900.911 2994.21 901.045 2994 901.045H2504.58C2499.06 901.045 2494.58 896.568 2494.58 891.045V194.5C2494.58 188.977 2499.06 184.5 2504.58 184.5H3245C3245.34 184.5 3245.59 184.84 3245.47 185.165ZM2724.51 476.5C2718.98 476.5 2714.51 480.977 2714.51 486.5V644.247C2714.51 644.382 2714.56 644.511 2714.66 644.605L2751.32 680.358C2751.42 680.449 2751.54 680.5 2751.67 680.5H2845.51C2851.03 680.5 2855.51 676.023 2855.51 670.5V486.5C2855.51 480.977 2851.03 476.5 2845.51 476.5H2724.51Z" fill="#D9D9D9"/>
<path d="M3245.47 185.165L3219.05 175.893L3219.05 175.897L3245.47 185.165ZM2994.47 900.711L3020.89 909.981L3020.89 909.979L2994.47 900.711ZM2714.66 644.605L2734.21 624.558L2734.2 624.549L2714.66 644.605ZM2751.32 680.358L2731.78 700.405L2731.79 700.415L2731.8 700.425L2751.32 680.358ZM3245.47 185.165L3219.05 175.897L2968.05 891.443L2994.47 900.711L3020.89 909.979L3271.89 194.433L3245.47 185.165ZM2994 901.045V873.045H2504.58V901.045V929.045H2994V901.045ZM2494.58 891.045H2522.58V194.5H2494.58H2466.58V891.045H2494.58ZM2504.58 184.5V212.5H3245V184.5V156.5H2504.58V184.5ZM2714.51 486.5H2686.51V644.247H2714.51H2742.51V486.5H2714.51ZM2714.66 644.605L2695.11 664.652L2731.78 700.405L2751.32 680.358L2770.87 660.311L2734.21 624.558L2714.66 644.605ZM2751.67 680.5V708.5H2845.51V680.5V652.5H2751.67V680.5ZM2855.51 670.5H2883.51V486.5H2855.51H2827.51V670.5H2855.51ZM2845.51 476.5V448.5H2724.51V476.5V504.5H2845.51V476.5ZM2855.51 486.5H2883.51C2883.51 465.513 2866.49 448.5 2845.51 448.5V476.5V504.5C2835.57 504.5 2827.51 496.441 2827.51 486.5H2855.51ZM2845.51 680.5V708.5C2866.49 708.5 2883.51 691.487 2883.51 670.5H2855.51H2827.51C2827.51 660.559 2835.57 652.5 2845.51 652.5V680.5ZM2751.32 680.358L2731.8 700.425C2737.12 705.603 2744.25 708.5 2751.67 708.5V680.5V652.5C2758.84 652.5 2765.72 655.296 2770.85 660.292L2751.32 680.358ZM2714.51 644.247H2686.51C2686.51 651.935 2689.61 659.297 2695.12 664.662L2714.66 644.605L2734.2 624.549C2739.51 629.725 2742.51 636.828 2742.51 644.247H2714.51ZM2714.51 486.5H2742.51C2742.51 496.441 2734.45 504.5 2724.51 504.5V476.5V448.5C2703.52 448.5 2686.51 465.513 2686.51 486.5H2714.51ZM3245 184.5V212.5C3226.05 212.5 3212.77 193.778 3219.05 175.893L3245.47 185.165L3271.89 194.437C3278.4 175.902 3264.64 156.5 3245 156.5V184.5ZM2494.58 194.5H2522.58C2522.58 204.441 2514.52 212.5 2504.58 212.5V184.5V156.5C2483.6 156.5 2466.58 173.513 2466.58 194.5H2494.58ZM2504.58 901.045V873.045C2514.52 873.045 2522.58 881.104 2522.58 891.045H2494.58H2466.58C2466.58 912.032 2483.6 929.045 2504.58 929.045V901.045ZM2994.47 900.711L2968.05 891.44C2971.92 880.421 2982.32 873.045 2994 873.045V901.045V929.045C3006.1 929.045 3016.89 921.401 3020.89 909.981L2994.47 900.711Z" fill="black"/>
</mask>
<g mask="url(#mask1_11_14)">
<path d="M2520 771.214V467.924C2520 466.331 2520.38 464.761 2521.11 463.345L2628.21 255.421C2629.92 252.092 2633.35 250 2637.1 250H2959.81C2963.39 250 2966.69 251.906 2968.47 255L3053.16 401.679C3054.04 403.2 3054.5 404.924 3054.5 406.68V669.046C3054.5 670.802 3054.04 672.526 3053.16 674.046L2933.39 881.5C2931.6 884.594 2928.3 886.5 2924.73 886.5H2580.78C2576.94 886.5 2573.44 884.302 2571.77 880.844L2520.99 775.559C2520.34 774.204 2520 772.719 2520 771.214Z" fill="#AFD238" stroke="#E6EFEA" stroke-width="56"/>
<path d="M2845.01 477H2725.01C2719.48 477 2715.01 481.477 2715.01 487V640.031C2715.01 642.727 2716.1 645.308 2718.03 647.191L2748.76 677.16C2750.63 678.981 2753.13 680 2755.74 680H2845.01C2850.53 680 2855.01 675.523 2855.01 670V487C2855.01 481.477 2850.53 477 2845.01 477Z" fill="#D9D9D9" stroke="#E6EFEA" stroke-width="59"/>
</g>
<path d="M3439.5 258.285V771.756C3439.5 773.234 3439.83 774.693 3440.46 776.029L3492.79 886.773C3494.45 890.27 3497.97 892.5 3501.83 892.5H3842.01C3845.7 892.5 3849.09 890.473 3850.83 887.225L3976.81 652.213C3977.59 650.76 3978 649.137 3978 647.489V602.796C3978 600.053 3976.87 597.431 3974.88 595.543L3951.39 573.247C3949.54 571.483 3947.07 570.5 3944.51 570.5H3841.24C3837.17 570.5 3833.5 572.972 3831.97 576.75L3792.53 674.25C3791 678.028 3787.33 680.5 3783.26 680.5H3664.09C3659.37 680.5 3655.3 677.203 3654.31 672.589L3632.72 571.533C3632.57 570.846 3632.5 570.146 3632.5 569.444V266C3632.5 260.477 3636.98 256 3642.5 256H3780C3785.52 256 3790 260.477 3790 266V347C3790 352.523 3794.48 357 3800 357H3899.69C3903.01 357 3906.11 355.351 3907.97 352.6L3976.28 251.537C3977.4 249.884 3978 247.933 3978 245.937V171.864C3978 169.992 3977.47 168.158 3976.48 166.57L3895.44 36.7056C3893.61 33.7786 3890.4 32 3886.95 32H3553.78C3549.94 32 3546.44 34.1984 3544.77 37.657L3440.49 253.942C3439.84 255.297 3439.5 256.781 3439.5 258.285Z" fill="#AFD238" stroke="#E6EFEA" stroke-width="56"/>
</svg>
